<svg width="30" height="30" viewBox="0 0 30 30" fill="none" xmlns="http://www.w3.org/2000/svg">
<path d="M28.3333 13.781V15.0076C28.3317 17.8829 27.4007 20.6805 25.6791 22.9834C23.9576 25.2863 21.5377 26.9709 18.7805 27.7862C16.0233 28.6014 13.0764 28.5035 10.3793 27.5071C7.68226 26.5107 5.37956 24.6691 3.81463 22.2571C2.24971 19.845 1.50641 16.9917 1.69559 14.1227C1.88477 11.2537 2.9963 8.52275 4.86439 6.33708C6.73249 4.15141 9.25706 2.62816 12.0616 1.99451C14.8661 1.36087 17.8004 1.65077 20.4267 2.82099M10 12.2222L14.3771 16.5993C15.0279 17.2502 16.0832 17.2502 16.7341 16.5993L26.6667 6.66668" stroke="white" stroke-width="1.5" stroke-linecap="round" stroke-linejoin="round"/>
</svg>
