<svg width="18" height="21" viewBox="0 0 18 21" fill="none" xmlns="http://www.w3.org/2000/svg">
<path d="M10.2747 19.1607C10.1319 19.416 9.92693 19.6279 9.68031 19.7752C9.43369 19.9225 9.15407 20 8.86946 20C8.58485 20 8.30524 19.9225 8.05862 19.7752C7.81199 19.6279 7.60701 19.416 7.46421 19.1607M13.741 8.21143C13.741 6.87115 13.2297 5.58576 12.3157 4.63804C11.4017 3.69032 10.1621 3.1579 8.86946 3.1579C7.57687 3.1579 6.33722 3.69032 5.42322 4.63804C4.50921 5.58576 3.99573 6.87115 3.99573 8.21143C3.99573 12.6316 0.198903 13.383 1.55887 15.2632C2.91884 17.1434 14.7562 17.3684 16.279 15.2632C17.6038 13.4316 13.741 12.6316 13.741 8.21143Z" stroke="#ECECEC" stroke-width="1.5" stroke-linecap="round" stroke-linejoin="round"/>
<ellipse cx="13.4469" cy="3.15789" rx="3.55313" ry="3.15789" fill="#CA5757"/>
</svg>
