<svg width="34" height="35" viewBox="0 0 34 35" fill="none" xmlns="http://www.w3.org/2000/svg">
<g clip-path="url(#clip0_137_84)">
<rect width="33.75" height="35" rx="16.875" fill="url(#paint0_linear_137_84)"/>
<path d="M13.275 22.0248V22.0751C13.2616 23.1389 12.3991 23.9388 10.6875 24.4748C12.7499 26.0303 14.8125 27.2748 16.875 27.2748C18.9374 27.2748 21 26.0303 23.0625 24.4748C21.3624 23.9381 20.4999 23.137 20.475 22.0715C20.475 21.8815 20.4763 21.6118 20.4776 21.1054C20.4776 21.0249 20.4777 20.9426 20.4781 20.8583C20.6011 20.8762 20.5906 20.8648 20.4781 20.8324C20.4815 19.5001 20.487 17.7087 20.4947 15.8881C22.107 13.7208 21.5147 11.1799 21.0095 11.2433C20.3901 11.3216 15.0236 6.04031 13.9942 5.76953C12.9648 5.49875 10.35 6.37293 9.89997 8.80835C9.44997 11.2438 9.26187 17.3825 10.9687 19.8333C11.4544 20.5308 12.2194 20.8036 13.2637 20.6518C13.2652 21.1615 13.2681 21.4475 13.275 22.0248Z" fill="url(#paint1_linear_137_84)"/>
<path d="M13.275 20.65C15.75 20.3583 17.325 19.25 17.325 19.25C17.325 19.25 15.6217 21.597 13.275 22.05V20.65Z" fill="#FFBE94"/>
<path d="M21.3187 15.925C22.0939 13.9918 25.2 10.0547 22.5225 7.6047C21.6225 3.0547 16.65 3.55835 13.3312 4.60835C11.1007 5.31406 9.41624 6.70835 9.05624 5.65835C6.80624 7.6047 7.93304 9.50835 9.41624 10.0547C10.7624 10.5505 13.0387 11.0464 16.9094 10.5797C17.6008 10.4963 17.4561 12.6923 17.8255 12.9297C18.3798 13.2859 18.81 11.0464 20.3296 11.7188C21.8493 12.3913 20.9475 15.5093 19.3162 15.5093C18.7537 15.5093 18.4725 17.1131 19.9912 17.8715C21.0937 18.4333 20.8151 17.1812 21.3187 15.925Z" fill="url(#paint2_linear_137_84)"/>
<path d="M28.6875 28.0359C29.7585 30.2943 30.375 35.5026 30.375 35.5026H3.375C3.375 35.5026 3.99172 30.2937 5.0625 28.0359C6.13327 25.7782 12.3862 23.6842 12.3862 23.6842C13.5915 26.25 20.2059 26.25 21.3605 23.6833C21.3605 23.6833 27.6165 25.7776 28.6875 28.0359Z" fill="url(#paint3_linear_137_84)"/>
<mask id="mask0_137_84" style="mask-type:alpha" maskUnits="userSpaceOnUse" x="3" y="23" width="28" height="13">
<path d="M28.6875 28.0359C29.7585 30.2943 30.375 35.5026 30.375 35.5026H3.375C3.375 35.5026 3.99172 30.2937 5.0625 28.0359C6.13327 25.7782 12.3862 23.6842 12.3862 23.6842C13.5915 26.25 20.2059 26.25 21.3605 23.6833C21.3605 23.6833 27.6165 25.7776 28.6875 28.0359Z" fill="url(#paint4_linear_137_84)"/>
</mask>
<g mask="url(#mask0_137_84)">
<path d="M2.25 33.1334V32.2001H31.5V33.1334H2.25ZM2.25 30.8001V29.8667H31.5V30.8001H2.25ZM2.25 28.4667V27.5334H31.5V28.4667H2.25Z" fill="url(#paint5_linear_137_84)"/>
</g>
</g>
<defs>
<linearGradient id="paint0_linear_137_84" x1="16.875" y1="0" x2="16.875" y2="35" gradientUnits="userSpaceOnUse">
<stop stop-color="#1D0024"/>
<stop offset="1" stop-color="#100014"/>
</linearGradient>
<linearGradient id="paint1_linear_137_84" x1="16.3262" y1="5.72217" x2="16.3262" y2="27.2748" gradientUnits="userSpaceOnUse">
<stop stop-color="#FFD4B3"/>
<stop offset="1" stop-color="#FFDCC2"/>
</linearGradient>
<linearGradient id="paint2_linear_137_84" x1="15.687" y1="18.0096" x2="15.687" y2="3.89526" gradientUnits="userSpaceOnUse">
<stop stop-color="#E6864E"/>
<stop offset="1" stop-color="#E67240"/>
</linearGradient>
<linearGradient id="paint3_linear_137_84" x1="16.875" y1="35.5026" x2="16.875" y2="23.6833" gradientUnits="userSpaceOnUse">
<stop stop-color="#E6864E"/>
<stop offset="1" stop-color="#E67240"/>
</linearGradient>
<linearGradient id="paint4_linear_137_84" x1="16.875" y1="35.5026" x2="16.875" y2="23.6833" gradientUnits="userSpaceOnUse">
<stop stop-color="#E6864E"/>
<stop offset="1" stop-color="#E67240"/>
</linearGradient>
<linearGradient id="paint5_linear_137_84" x1="16.875" y1="27.5334" x2="16.875" y2="33.1334" gradientUnits="userSpaceOnUse">
<stop stop-color="#F7B186"/>
<stop offset="1" stop-color="#FFC299"/>
</linearGradient>
<clipPath id="clip0_137_84">
<rect width="33.75" height="35" rx="16.875" fill="white"/>
</clipPath>
</defs>
</svg>
