<svg xmlns="http://www.w3.org/2000/svg" version="1.1" xmlns:xlink="http://www.w3.org/1999/xlink" xmlns:svgjs="http://svgjs.dev/svgjs" width="128" height="128" viewBox="0 0 128 128"><g transform="matrix(0.8046875,0,0,0.8046875,11.709272633428505,13.519060319328538)"><svg viewBox="0 0 97 95" data-background-color="#001f3f" preserveAspectRatio="xMidYMid meet" height="125" width="128" xmlns="http://www.w3.org/2000/svg" xmlns:xlink="http://www.w3.org/1999/xlink"><g id="tight-bounds" transform="matrix(1,0,0,1,0.759499977829563,0.17753215665747746)"><svg viewBox="0 0 95.481 94.32598790322581" height="94.32598790322581" width="95.481"><g><svg viewBox="0 0 95.481 94.32598790322581" height="94.32598790322581" width="95.481"><g><svg viewBox="0 0 95.481 94.32598790322581" height="94.32598790322581" width="95.481"><g id="textblocktransform"><svg viewBox="0 0 95.481 94.32598790322581" height="94.32598790322581" width="95.481" id="textblock"><g><svg viewBox="0 0 95.481 94.32598790322581" height="94.32598790322581" width="95.481"><g><svg viewBox="0 0 95.481 94.32598790322581" height="94.32598790322581" width="95.481"><g><svg xmlns="http://www.w3.org/2000/svg" xmlns:xlink="http://www.w3.org/1999/xlink" version="1.1" x="0" y="0" viewBox="1 1.75 62 61.25" enable-background="new 0 0 64 64" xml:space="preserve" height="94.32598790322581" width="95.481" class="icon-icon-0" data-fill-palette-color="accent" id="icon-0"><g fill="#0074d9" data-fill-palette-color="accent"><g fill="#0074d9" data-fill-palette-color="accent"><path d="M5 31H59A1 1 0 0 0 60 30V26A1 1 0 0 0 59 25H50V22A1 1 0 0 0 49 21H46.133C44.145 15.393 38.928 11.444 33 11.041V8C33.764 8 34.095 8.166 34.553 8.395 35.092 8.664 35.764 9 37 9 40.678 9 41.898 5.467 41.949 5.316A1.001 1.001 0 0 0 40.553 4.105C39.78 4.492 39.282 4.656 38.887 4.656 38.463 4.656 37.906 4.491 36.707 3.292 35.432 2.018 34.123 1.75 33.25 1.75 32.386 1.75 31.785 2 31.616 2.078L31.605 2.083 31.553 2.106A1 1 0 0 0 31.307 2.284C31.291 2.299 31.281 2.318 31.266 2.334A1 1 0 0 0 31.07 2.654 1 1 0 0 0 31 3V11.042C25.071 11.444 19.854 15.393 17.867 21H15A1 1 0 0 0 14 22V25H5A1 1 0 0 0 4 26V30A1 1 0 0 0 5 31M33 3.763C33.077 3.755 33.161 3.75 33.25 3.75 33.971 3.75 34.658 4.072 35.293 4.707 36.502 5.917 37.45 6.501 38.449 6.629A2.9 2.9 0 0 1 37 7C36.236 7 35.905 6.834 35.447 6.605 34.908 6.336 34.236 6 33 6zM32 13C37.251 13 42.007 16.229 44.003 21H19.997C21.993 16.229 26.749 13 32 13M6 27H20A1 1 0 0 0 20 25H16V23H48V25H44A1 1 0 0 0 44 27H58V29H6z" fill="#ffffff" data-fill-palette-color="accent"></path><path d="M34 49A1 1 0 0 0 35 48V33A1 1 0 0 0 34 32H30A1 1 0 0 0 29 33V48A1 1 0 0 0 30 49zM31 34H33V47H31z" fill="#ffffff" data-fill-palette-color="accent"></path><path d="M43 49A1 1 0 0 0 44 48V33A1 1 0 0 0 43 32H39A1 1 0 0 0 38 33V48A1 1 0 0 0 39 49zM40 34H42V47H40z" fill="#ffffff" data-fill-palette-color="accent"></path><path d="M52 49A1 1 0 0 0 53 48V33A1 1 0 0 0 52 32H48A1 1 0 0 0 47 33V48A1 1 0 0 0 48 49zM49 34H51V47H49z" fill="#ffffff" data-fill-palette-color="accent"></path><path d="M25 49A1 1 0 0 0 26 48V33A1 1 0 0 0 25 32H21A1 1 0 0 0 20 33V48A1 1 0 0 0 21 49zM22 34H24V47H22z" fill="#ffffff" data-fill-palette-color="accent"></path><path d="M16 49A1 1 0 0 0 17 48V33A1 1 0 0 0 16 32H12A1 1 0 0 0 11 33V48A1 1 0 0 0 12 49zM13 34H15V47H13z" fill="#ffffff" data-fill-palette-color="accent"></path><path d="M6 51V55A1 1 0 0 0 7 56H57A1 1 0 0 0 58 55V51A1 1 0 0 0 57 50H7A1 1 0 0 0 6 51M8 52H56V54H8z" fill="#ffffff" data-fill-palette-color="accent"></path><path d="M62 57H2A1 1 0 0 0 1 58V62A1 1 0 0 0 2 63H62A1 1 0 0 0 63 62V58A1 1 0 0 0 62 57M61 61H3V59H61z" fill="#ffffff" data-fill-palette-color="accent"></path></g></g></svg></g></svg></g></svg></g></svg></g></svg></g><g></g></svg></g><defs></defs></svg><rect width="95.481" height="94.32598790322581" fill="none" stroke="none" visibility="hidden"></rect></g></svg></g></svg>