<?xml version="1.0" encoding="utf-8"?>
<!-- Generator: Adobe Illustrator 25.2.0, SVG Export Plug-In . SVG Version: 6.00 Build 0)  -->
<svg version="1.1" id="Layer_1" xmlns="http://www.w3.org/2000/svg" xmlns:xlink="http://www.w3.org/1999/xlink" x="0px" y="0px"
	 viewBox="0 0 13 12" style="enable-background:new 0 0 13 12;" xml:space="preserve">
<style type="text/css">
	.st0{fill-rule:evenodd;clip-rule:evenodd;fill:#0041D3;}
</style>
<path class="st0" d="M7.7,11H2.9V6.4C2.9,6.2,2.8,6,2.6,6C2.4,6,2.3,6.2,2.3,6.4v5.1c0,0.2,0.1,0.3,0.3,0.3h4.8 M7.4,11.8h3
	c0.2,0,0.3-0.2,0.3-0.3V6.2c0-0.2-0.2-0.3-0.3-0.3l0,0c-0.2,0-0.3,0.1-0.3,0.3V11H7.7 M2.6,0.8L2.6,0.8c0.2,0,0.3,0.2,0.3,0.4v2.7
	l3.3-3.5c0.1-0.1,0.2-0.1,0.3-0.1c0.1,0,0.1,0,0.2,0.1c2,2,3.3,3.5,5.5,5.8l0,0c0.1,0.1,0.1,0.4,0,0.5c-0.1,0-0.1,0.1-0.2,0.1
	s-0.2,0-0.2-0.1L6.5,1L1.3,6.5c-0.1,0.2-0.3,0.2-0.5,0c-0.1,0-0.1-0.1-0.1-0.2c0-0.1,0-0.2,0.1-0.3l1.5-1.6V1.2
	C2.3,0.9,2.4,0.8,2.6,0.8L2.6,0.8z"/>
</svg>
