<?xml version="1.0" encoding="utf-8"?>
<!-- Generator: Adobe Illustrator 25.2.0, SVG Export Plug-In . SVG Version: 6.00 Build 0)  -->
<svg version="1.1" id="Layer_1" xmlns="http://www.w3.org/2000/svg" xmlns:xlink="http://www.w3.org/1999/xlink" x="0px" y="0px"
	 viewBox="0 0 288 560" style="enable-background:new 0 0 288 560;" xml:space="preserve">
<style type="text/css">
	.st0{opacity:0.9;}
	.st1{fill-rule:evenodd;clip-rule:evenodd;fill:#FFFFFF;}
	.st2{fill-rule:evenodd;clip-rule:evenodd;fill:#FEFEFE;}
	.st3{fill-rule:evenodd;clip-rule:evenodd;fill:#FDFDFD;}
	.st4{fill-rule:evenodd;clip-rule:evenodd;fill:#FCFCFC;}
	.st5{fill-rule:evenodd;clip-rule:evenodd;fill:#FBFBFB;}
	.st6{fill-rule:evenodd;clip-rule:evenodd;fill:#FAFAFA;}
	.st7{fill-rule:evenodd;clip-rule:evenodd;fill:#F9F9F9;}
	.st8{fill-rule:evenodd;clip-rule:evenodd;fill:#F8F8F8;}
	.st9{fill-rule:evenodd;clip-rule:evenodd;fill:#F7F7F7;}
	.st10{fill-rule:evenodd;clip-rule:evenodd;fill:#F6F6F6;}
	.st11{fill-rule:evenodd;clip-rule:evenodd;fill:#F5F5F5;}
	.st12{fill-rule:evenodd;clip-rule:evenodd;fill:#F4F4F4;}
	.st13{fill-rule:evenodd;clip-rule:evenodd;fill:#F3F3F3;}
	.st14{fill-rule:evenodd;clip-rule:evenodd;fill:#F2F2F2;}
	.st15{fill-rule:evenodd;clip-rule:evenodd;fill:#F1F1F1;}
	.st16{fill-rule:evenodd;clip-rule:evenodd;fill:#F0F0F0;}
	.st17{fill-rule:evenodd;clip-rule:evenodd;fill:#EFEFEF;}
	.st18{fill-rule:evenodd;clip-rule:evenodd;fill:#EEEEEE;}
	.st19{fill-rule:evenodd;clip-rule:evenodd;fill:#EDEDED;}
	.st20{fill-rule:evenodd;clip-rule:evenodd;fill:#ECECEC;}
	.st21{fill-rule:evenodd;clip-rule:evenodd;fill:#EBEBEB;}
	.st22{fill-rule:evenodd;clip-rule:evenodd;fill:#EAEAEA;}
	.st23{fill-rule:evenodd;clip-rule:evenodd;fill:#E9E9E9;}
	.st24{fill-rule:evenodd;clip-rule:evenodd;fill:#E8E8E8;}
	.st25{fill-rule:evenodd;clip-rule:evenodd;fill:#E7E7E7;}
	.st26{fill-rule:evenodd;clip-rule:evenodd;fill:#E6E6E6;}
	.st27{fill-rule:evenodd;clip-rule:evenodd;fill:#E5E5E5;}
	.st28{fill-rule:evenodd;clip-rule:evenodd;fill:#E4E4E4;}
	.st29{fill-rule:evenodd;clip-rule:evenodd;fill:#E3E3E3;}
	.st30{fill-rule:evenodd;clip-rule:evenodd;fill:#E2E2E2;}
	.st31{fill-rule:evenodd;clip-rule:evenodd;fill:#E1E1E1;}
	.st32{fill-rule:evenodd;clip-rule:evenodd;fill:#E0E0E0;}
	.st33{fill-rule:evenodd;clip-rule:evenodd;fill:#DFDFDF;}
	.st34{fill-rule:evenodd;clip-rule:evenodd;fill:#DEDEDE;}
	.st35{fill-rule:evenodd;clip-rule:evenodd;fill:#DDDDDD;}
	.st36{fill-rule:evenodd;clip-rule:evenodd;fill:#DCDCDC;}
	.st37{fill-rule:evenodd;clip-rule:evenodd;fill:#DBDBDB;}
	.st38{fill-rule:evenodd;clip-rule:evenodd;fill:#DADADA;}
	.st39{fill-rule:evenodd;clip-rule:evenodd;fill:#D9D9D9;}
	.st40{fill-rule:evenodd;clip-rule:evenodd;fill:#D8D8D8;}
	.st41{fill-rule:evenodd;clip-rule:evenodd;fill:#D7D7D7;}
	.st42{fill-rule:evenodd;clip-rule:evenodd;fill:#D6D6D6;}
	.st43{fill-rule:evenodd;clip-rule:evenodd;fill:#D5D5D5;}
	.st44{fill-rule:evenodd;clip-rule:evenodd;fill:#D4D4D4;}
	.st45{fill-rule:evenodd;clip-rule:evenodd;fill:#D3D3D3;}
	.st46{fill-rule:evenodd;clip-rule:evenodd;fill:#D2D2D2;}
	.st47{fill-rule:evenodd;clip-rule:evenodd;fill:#D1D1D1;}
	.st48{fill-rule:evenodd;clip-rule:evenodd;fill:#D0D0D0;}
	.st49{fill-rule:evenodd;clip-rule:evenodd;fill:#CFCFCF;}
	.st50{fill-rule:evenodd;clip-rule:evenodd;fill:#CECECE;}
	.st51{fill-rule:evenodd;clip-rule:evenodd;fill:#CDCDCD;}
	.st52{fill-rule:evenodd;clip-rule:evenodd;fill:#CCCCCC;}
	.st53{fill-rule:evenodd;clip-rule:evenodd;fill:#CBCBCB;}
	.st54{fill-rule:evenodd;clip-rule:evenodd;fill:#CACACA;}
	.st55{fill-rule:evenodd;clip-rule:evenodd;fill:#C9C9C9;}
	.st56{fill-rule:evenodd;clip-rule:evenodd;fill:#C8C8C8;}
	.st57{fill-rule:evenodd;clip-rule:evenodd;fill:#C7C7C7;}
	.st58{fill-rule:evenodd;clip-rule:evenodd;fill:#C6C6C6;}
	.st59{fill-rule:evenodd;clip-rule:evenodd;fill:#C5C5C5;}
	.st60{fill-rule:evenodd;clip-rule:evenodd;fill:#C4C4C4;}
	.st61{fill-rule:evenodd;clip-rule:evenodd;fill:#C3C3C3;}
	.st62{fill-rule:evenodd;clip-rule:evenodd;fill:#C2C2C2;}
	.st63{fill-rule:evenodd;clip-rule:evenodd;fill:#C1C1C1;}
	.st64{fill-rule:evenodd;clip-rule:evenodd;fill:#C0C0C0;}
	.st65{fill-rule:evenodd;clip-rule:evenodd;fill:#BFBFBF;}
	.st66{fill-rule:evenodd;clip-rule:evenodd;fill:#BEBEBE;}
	.st67{fill-rule:evenodd;clip-rule:evenodd;fill:#BDBDBD;}
	.st68{fill-rule:evenodd;clip-rule:evenodd;fill:#BCBCBC;}
	.st69{fill-rule:evenodd;clip-rule:evenodd;fill:#BBBBBB;}
	.st70{fill-rule:evenodd;clip-rule:evenodd;fill:#BABABA;}
	.st71{fill-rule:evenodd;clip-rule:evenodd;fill:#B9B9B9;}
	.st72{fill-rule:evenodd;clip-rule:evenodd;fill:#B8B8B8;}
	.st73{fill-rule:evenodd;clip-rule:evenodd;fill:#B7B7B7;}
	.st74{fill-rule:evenodd;clip-rule:evenodd;fill:#B6B6B6;}
	.st75{fill-rule:evenodd;clip-rule:evenodd;fill:#B5B5B5;}
	.st76{fill-rule:evenodd;clip-rule:evenodd;fill:#B4B4B4;}
	.st77{fill-rule:evenodd;clip-rule:evenodd;fill:#B3B3B3;}
	.st78{fill-rule:evenodd;clip-rule:evenodd;fill:#0041D3;}
</style>
<g class="st0">
	<path class="st1" d="M136.89,202.72c-27.24,0-49.34-2.08-49.34-4.64c0-2.56,22.1-4.64,49.34-4.64c27.25,0,49.34,2.08,49.34,4.64
		C186.23,200.64,164.13,202.72,136.89,202.72L136.89,202.72z"/>
	<path class="st2" d="M136.9,202.66c-26.98,0-48.87-2.06-48.87-4.59c0-2.53,21.89-4.59,48.87-4.59c26.99,0,48.87,2.06,48.87,4.59
		C185.77,200.6,163.88,202.66,136.9,202.66L136.9,202.66z"/>
	<path class="st3" d="M136.9,202.6c-26.72,0-48.4-2.03-48.4-4.55c0-2.51,21.68-4.54,48.4-4.54c26.73,0,48.4,2.03,48.4,4.54
		C185.3,200.57,163.63,202.6,136.9,202.6L136.9,202.6z"/>
	<path class="st4" d="M136.91,202.55c-26.47,0-47.93-2.01-47.93-4.5c0-2.48,21.47-4.49,47.93-4.49c26.47,0,47.93,2.01,47.93,4.49
		C184.84,200.54,163.37,202.55,136.91,202.55L136.91,202.55z"/>
	<path class="st5" d="M136.91,202.49c-26.21,0-47.46-1.99-47.46-4.45c0-2.45,21.26-4.44,47.46-4.44c26.21,0,47.46,1.99,47.46,4.44
		C184.37,200.5,163.12,202.49,136.91,202.49L136.91,202.49z"/>
	<path class="st6" d="M136.92,202.44c-25.95,0-46.99-1.97-46.99-4.4c0-2.43,21.05-4.4,46.99-4.4c25.95,0,46.99,1.97,46.99,4.4
		C183.91,200.47,162.87,202.44,136.92,202.44L136.92,202.44z"/>
	<path class="st7" d="M136.93,202.38c-25.69,0-46.53-1.95-46.53-4.35c0-2.4,20.84-4.35,46.53-4.35c25.69,0,46.52,1.95,46.52,4.35
		C183.45,200.44,162.61,202.38,136.93,202.38L136.93,202.38z"/>
	<path class="st8" d="M136.93,202.33c-25.43,0-46.06-1.93-46.06-4.3c0-2.37,20.63-4.3,46.06-4.3c25.43,0,46.05,1.93,46.05,4.3
		C182.98,200.4,162.36,202.33,136.93,202.33L136.93,202.33z"/>
	<path class="st9" d="M136.94,202.27c-25.17,0-45.59-1.9-45.59-4.25c0-2.35,20.42-4.25,45.59-4.25c25.17,0,45.58,1.9,45.58,4.25
		C182.52,200.37,162.11,202.27,136.94,202.27L136.94,202.27z"/>
	<path class="st10" d="M136.94,202.22c-24.91,0-45.12-1.88-45.12-4.21c0-2.32,20.21-4.2,45.12-4.2c24.91,0,45.11,1.88,45.11,4.2
		C182.06,200.34,161.85,202.22,136.94,202.22L136.94,202.22z"/>
	<path class="st11" d="M136.95,202.16c-24.65,0-44.65-1.86-44.65-4.16c0-2.29,20-4.15,44.65-4.15c24.65,0,44.64,1.86,44.64,4.15
		C181.59,200.3,161.6,202.16,136.95,202.16L136.95,202.16z"/>
	<path class="st12" d="M136.96,202.11c-24.39,0-44.18-1.84-44.18-4.11c0-2.27,19.79-4.11,44.18-4.11c24.39,0,44.17,1.84,44.17,4.11
		C181.13,200.27,161.35,202.11,136.96,202.11L136.96,202.11z"/>
	<path class="st13" d="M136.96,202.05c-24.13,0-43.71-1.82-43.71-4.06c0-2.24,19.58-4.06,43.71-4.06c24.13,0,43.7,1.82,43.7,4.06
		C180.67,200.23,161.1,202.05,136.96,202.05L136.96,202.05z"/>
	<path class="st14" d="M136.97,202c-23.87,0-43.24-1.8-43.24-4.01c0-2.21,19.37-4.01,43.24-4.01c23.87,0,43.23,1.8,43.23,4.01
		C180.2,200.2,160.84,202,136.97,202L136.97,202z"/>
	<path class="st15" d="M136.98,201.94c-23.61,0-42.77-1.77-42.77-3.96c0-2.19,19.15-3.96,42.77-3.96c23.61,0,42.76,1.77,42.76,3.96
		C179.74,200.17,160.59,201.94,136.98,201.94L136.98,201.94z"/>
	<path class="st16" d="M136.98,201.89c-23.35,0-42.3-1.75-42.3-3.91c0-2.16,18.94-3.91,42.3-3.91c23.35,0,42.29,1.75,42.29,3.91
		C179.28,200.13,160.34,201.89,136.98,201.89L136.98,201.89z"/>
	<path class="st17" d="M136.99,201.83c-23.09,0-41.83-1.73-41.83-3.87c0-2.13,18.73-3.86,41.83-3.86c23.09,0,41.82,1.73,41.82,3.86
		C178.81,200.1,160.08,201.83,136.99,201.83L136.99,201.83z"/>
	<path class="st18" d="M136.99,201.78c-22.83,0-41.36-1.71-41.36-3.82c0-2.11,18.52-3.82,41.36-3.82c22.83,0,41.35,1.71,41.35,3.82
		C178.35,200.07,159.83,201.78,136.99,201.78L136.99,201.78z"/>
	<path class="st19" d="M137,201.72c-22.57,0-40.89-1.69-40.89-3.77c0-2.08,18.31-3.77,40.89-3.77c22.58,0,40.88,1.69,40.88,3.77
		C177.88,200.03,159.58,201.72,137,201.72L137,201.72z"/>
	<path class="st20" d="M137.01,201.66c-22.32,0-40.42-1.67-40.42-3.72c0-2.05,18.1-3.72,40.42-3.72c22.32,0,40.41,1.67,40.41,3.72
		C177.42,200,159.32,201.66,137.01,201.66L137.01,201.66z"/>
	<path class="st21" d="M137.01,201.61c-22.06,0-39.95-1.64-39.95-3.67c0-2.03,17.89-3.67,39.95-3.67c22.06,0,39.94,1.64,39.94,3.67
		C176.96,199.97,159.07,201.61,137.01,201.61L137.01,201.61z"/>
	<path class="st22" d="M137.02,201.55c-21.8,0-39.48-1.62-39.48-3.62c0-2,17.68-3.62,39.48-3.62c21.8,0,39.47,1.62,39.47,3.62
		C176.49,199.93,158.82,201.55,137.02,201.55L137.02,201.55z"/>
	<path class="st23" d="M137.03,201.5c-21.54,0-39.01-1.6-39.01-3.57c0-1.97,17.47-3.57,39.01-3.57c21.54,0,39,1.6,39,3.57
		C176.03,199.9,158.56,201.5,137.03,201.5L137.03,201.5z"/>
	<path class="st24" d="M137.03,201.44c-21.28,0-38.54-1.58-38.54-3.53c0-1.95,17.26-3.52,38.54-3.52c21.28,0,38.54,1.58,38.54,3.52
		C175.57,199.86,158.31,201.44,137.03,201.44L137.03,201.44z"/>
	<path class="st25" d="M137.04,201.39c-21.02,0-38.07-1.56-38.07-3.48c0-1.92,17.05-3.48,38.07-3.48c21.02,0,38.07,1.56,38.07,3.48
		C175.1,199.83,158.06,201.39,137.04,201.39L137.04,201.39z"/>
	<path class="st26" d="M137.04,201.33c-20.76,0-37.6-1.54-37.6-3.43c0-1.89,16.84-3.43,37.6-3.43c20.76,0,37.6,1.53,37.6,3.43
		C174.64,199.8,157.8,201.33,137.04,201.33L137.04,201.33z"/>
	<path class="st27" d="M137.05,201.28c-20.5,0-37.13-1.51-37.13-3.38c0-1.87,16.63-3.38,37.13-3.38c20.5,0,37.13,1.51,37.13,3.38
		C174.18,199.76,157.55,201.28,137.05,201.28L137.05,201.28z"/>
	<path class="st28" d="M137.06,201.22c-20.24,0-36.66-1.49-36.66-3.33c0-1.84,16.42-3.33,36.66-3.33c20.24,0,36.66,1.49,36.66,3.33
		C173.71,199.73,157.3,201.22,137.06,201.22L137.06,201.22z"/>
	<path class="st29" d="M137.06,201.17c-19.98,0-36.19-1.47-36.19-3.28c0-1.81,16.21-3.28,36.19-3.28c19.98,0,36.19,1.47,36.19,3.28
		C173.25,199.7,157.04,201.17,137.06,201.17L137.06,201.17z"/>
	<path class="st30" d="M137.07,201.11c-19.72,0-35.72-1.45-35.72-3.23c0-1.79,16-3.23,35.72-3.23c19.72,0,35.72,1.45,35.72,3.23
		C172.78,199.66,156.79,201.11,137.07,201.11L137.07,201.11z"/>
	<path class="st31" d="M137.07,201.06c-19.46,0-35.25-1.43-35.25-3.19c0-1.76,15.79-3.19,35.25-3.19c19.46,0,35.25,1.43,35.25,3.19
		C172.32,199.63,156.54,201.06,137.07,201.06L137.07,201.06z"/>
	<path class="st32" d="M137.08,201c-19.2,0-34.78-1.41-34.78-3.14c0-1.73,15.58-3.14,34.78-3.14c19.2,0,34.78,1.4,34.78,3.14
		C171.86,199.6,156.28,201,137.08,201L137.08,201z"/>
	<path class="st33" d="M137.09,200.95c-18.94,0-34.31-1.38-34.31-3.09c0-1.71,15.37-3.09,34.31-3.09c18.94,0,34.31,1.38,34.31,3.09
		C171.39,199.56,156.03,200.95,137.09,200.95L137.09,200.95z"/>
	<path class="st34" d="M137.09,200.89c-18.68,0-33.84-1.36-33.84-3.04c0-1.68,15.16-3.04,33.84-3.04c18.68,0,33.84,1.36,33.84,3.04
		C170.93,199.53,155.78,200.89,137.09,200.89L137.09,200.89z"/>
	<path class="st35" d="M137.1,200.84c-18.42,0-33.37-1.34-33.37-2.99c0-1.65,14.95-2.99,33.37-2.99c18.42,0,33.37,1.34,33.37,2.99
		C170.47,199.5,155.52,200.84,137.1,200.84L137.1,200.84z"/>
	<path class="st36" d="M137.11,200.78c-18.17,0-32.9-1.32-32.9-2.94c0-1.63,14.74-2.94,32.9-2.94c18.16,0,32.9,1.32,32.9,2.94
		C170,199.46,155.27,200.78,137.11,200.78L137.11,200.78z"/>
	<path class="st37" d="M137.11,200.72c-17.91,0-32.43-1.3-32.43-2.89c0-1.6,14.53-2.89,32.43-2.89c17.91,0,32.43,1.3,32.43,2.89
		C169.54,199.43,155.02,200.72,137.11,200.72L137.11,200.72z"/>
	<path class="st38" d="M137.12,200.67c-17.65,0-31.96-1.27-31.96-2.85c0-1.57,14.32-2.85,31.96-2.85c17.65,0,31.96,1.27,31.96,2.85
		C169.08,199.39,154.76,200.67,137.12,200.67L137.12,200.67z"/>
	<path class="st39" d="M137.12,200.61c-17.39,0-31.49-1.25-31.49-2.8c0-1.55,14.11-2.8,31.49-2.8c17.39,0,31.49,1.25,31.49,2.8
		C168.61,199.36,154.51,200.61,137.12,200.61L137.12,200.61z"/>
	<path class="st39" d="M137.13,200.56c-17.13,0-31.02-1.23-31.02-2.75c0-1.52,13.89-2.75,31.02-2.75c17.13,0,31.02,1.23,31.02,2.75
		C168.15,199.33,154.26,200.56,137.13,200.56L137.13,200.56z"/>
	<path class="st40" d="M137.14,200.5c-16.87,0-30.55-1.21-30.55-2.7c0-1.49,13.68-2.7,30.55-2.7c16.87,0,30.55,1.21,30.55,2.7
		C167.69,199.29,154,200.5,137.14,200.5L137.14,200.5z"/>
	<path class="st41" d="M137.14,200.45c-16.61,0-30.08-1.19-30.08-2.65c0-1.47,13.47-2.65,30.08-2.65c16.61,0,30.08,1.19,30.08,2.65
		C167.22,199.26,153.75,200.45,137.14,200.45L137.14,200.45z"/>
	<path class="st42" d="M137.15,200.39c-16.35,0-29.61-1.17-29.61-2.6c0-1.44,13.26-2.6,29.61-2.6c16.35,0,29.61,1.17,29.61,2.6
		C166.76,199.23,153.5,200.39,137.15,200.39L137.15,200.39z"/>
	<path class="st43" d="M137.16,200.34c-16.09,0-29.14-1.14-29.14-2.55c0-1.41,13.05-2.56,29.14-2.56c16.09,0,29.14,1.14,29.14,2.56
		C166.29,199.19,153.24,200.34,137.16,200.34L137.16,200.34z"/>
	<path class="st44" d="M137.16,200.28c-15.83,0-28.67-1.12-28.67-2.51c0-1.39,12.84-2.51,28.67-2.51c15.83,0,28.67,1.12,28.67,2.51
		C165.83,199.16,152.99,200.28,137.16,200.28L137.16,200.28z"/>
	<path class="st45" d="M137.17,200.23c-15.57,0-28.2-1.1-28.2-2.46c0-1.36,12.63-2.46,28.2-2.46c15.57,0,28.2,1.1,28.2,2.46
		C165.37,199.13,152.74,200.23,137.17,200.23L137.17,200.23z"/>
	<path class="st46" d="M137.17,200.17c-15.31,0-27.73-1.08-27.73-2.41c0-1.33,12.42-2.41,27.73-2.41c15.31,0,27.73,1.08,27.73,2.41
		C164.9,199.09,152.48,200.17,137.17,200.17L137.17,200.17z"/>
	<path class="st47" d="M137.18,200.12c-15.05,0-27.26-1.06-27.26-2.36c0-1.31,12.21-2.36,27.26-2.36c15.05,0,27.26,1.06,27.26,2.36
		C164.44,199.06,152.23,200.12,137.18,200.12L137.18,200.12z"/>
	<path class="st48" d="M137.19,200.06c-14.79,0-26.8-1.04-26.8-2.31c0-1.28,12-2.31,26.8-2.31c14.79,0,26.79,1.03,26.79,2.31
		C163.98,199.03,151.98,200.06,137.19,200.06L137.19,200.06z"/>
	<path class="st49" d="M137.19,200.01c-14.53,0-26.33-1.01-26.33-2.26c0-1.25,11.79-2.26,26.33-2.26c14.53,0,26.32,1.01,26.32,2.26
		C163.51,198.99,151.73,200.01,137.19,200.01L137.19,200.01z"/>
	<path class="st50" d="M137.2,199.95c-14.28,0-25.86-0.99-25.86-2.22c0-1.23,11.58-2.22,25.86-2.22c14.27,0,25.85,0.99,25.85,2.22
		C163.05,198.96,151.47,199.95,137.2,199.95L137.2,199.95z"/>
	<path class="st51" d="M137.2,199.9c-14.02,0-25.39-0.97-25.39-2.17c0-1.2,11.37-2.17,25.39-2.17c14.01,0,25.38,0.97,25.38,2.17
		C162.59,198.92,151.22,199.9,137.2,199.9L137.2,199.9z"/>
	<path class="st52" d="M137.21,199.84c-13.76,0-24.92-0.95-24.92-2.12c0-1.17,11.16-2.12,24.92-2.12c13.75,0,24.91,0.95,24.91,2.12
		C162.12,198.89,150.97,199.84,137.21,199.84L137.21,199.84z"/>
	<path class="st53" d="M137.22,199.78c-13.5,0-24.45-0.93-24.45-2.07c0-1.14,10.95-2.07,24.45-2.07c13.5,0,24.44,0.93,24.44,2.07
		C161.66,198.86,150.71,199.78,137.22,199.78L137.22,199.78z"/>
	<path class="st54" d="M137.22,199.73c-13.24,0-23.98-0.91-23.98-2.02c0-1.12,10.74-2.02,23.98-2.02c13.24,0,23.97,0.9,23.97,2.02
		C161.2,198.82,150.46,199.73,137.22,199.73L137.22,199.73z"/>
	<path class="st55" d="M137.23,199.67c-12.98,0-23.51-0.88-23.51-1.97c0-1.09,10.53-1.97,23.51-1.97c12.98,0,23.5,0.88,23.5,1.97
		C160.73,198.79,150.21,199.67,137.23,199.67L137.23,199.67z"/>
	<path class="st56" d="M137.24,199.62c-12.72,0-23.04-0.86-23.04-1.92c0-1.06,10.32-1.93,23.04-1.93c12.72,0,23.03,0.86,23.03,1.93
		C160.27,198.76,149.95,199.62,137.24,199.62L137.24,199.62z"/>
	<path class="st57" d="M137.24,199.56c-12.46,0-22.57-0.84-22.57-1.88c0-1.04,10.11-1.88,22.57-1.88c12.46,0,22.56,0.84,22.56,1.88
		C159.8,198.72,149.7,199.56,137.24,199.56L137.24,199.56z"/>
	<path class="st58" d="M137.25,199.51c-12.2,0-22.1-0.82-22.1-1.83c0-1.01,9.9-1.83,22.1-1.83c12.2,0,22.09,0.82,22.09,1.83
		C159.34,198.69,149.45,199.51,137.25,199.51L137.25,199.51z"/>
	<path class="st59" d="M137.25,199.45c-11.94,0-21.63-0.8-21.63-1.78c0-0.98,9.69-1.78,21.63-1.78c11.94,0,21.62,0.8,21.62,1.78
		C158.88,198.66,149.19,199.45,137.25,199.45L137.25,199.45z"/>
	<path class="st60" d="M137.26,199.4c-11.68,0-21.16-0.78-21.16-1.73c0-0.96,9.48-1.73,21.16-1.73c11.68,0,21.15,0.77,21.15,1.73
		C158.41,198.62,148.94,199.4,137.26,199.4L137.26,199.4z"/>
	<path class="st61" d="M137.27,199.34c-11.42,0-20.69-0.75-20.69-1.68c0-0.93,9.27-1.68,20.69-1.68c11.42,0,20.68,0.75,20.68,1.68
		C157.95,198.59,148.69,199.34,137.27,199.34L137.27,199.34z"/>
	<path class="st62" d="M137.27,199.29c-11.16,0-20.22-0.73-20.22-1.63c0-0.9,9.06-1.63,20.22-1.63c11.16,0,20.21,0.73,20.21,1.63
		C157.49,198.56,148.43,199.29,137.27,199.29L137.27,199.29z"/>
	<path class="st63" d="M137.28,199.23c-10.9,0-19.75-0.71-19.75-1.58c0-0.88,8.85-1.59,19.75-1.59c10.9,0,19.74,0.71,19.74,1.59
		C157.02,198.52,148.18,199.23,137.28,199.23L137.28,199.23z"/>
	<path class="st64" d="M137.29,199.18c-10.64,0-19.28-0.69-19.28-1.54c0-0.85,8.63-1.54,19.28-1.54c10.64,0,19.27,0.69,19.27,1.54
		C156.56,198.49,147.93,199.18,137.29,199.18L137.29,199.18z"/>
	<path class="st65" d="M137.29,199.12c-10.38,0-18.81-0.67-18.81-1.49c0-0.82,8.42-1.49,18.81-1.49c10.38,0,18.8,0.67,18.8,1.49
		C156.1,198.45,147.67,199.12,137.29,199.12L137.29,199.12z"/>
	<path class="st66" d="M137.3,199.07c-10.13,0-18.34-0.65-18.34-1.44c0-0.8,8.21-1.44,18.34-1.44c10.12,0,18.33,0.64,18.33,1.44
		C155.63,198.42,147.42,199.07,137.3,199.07L137.3,199.07z"/>
	<path class="st67" d="M137.3,199.01c-9.87,0-17.87-0.62-17.87-1.39c0-0.77,8-1.39,17.87-1.39c9.86,0,17.86,0.62,17.86,1.39
		C155.17,198.39,147.17,199.01,137.3,199.01L137.3,199.01z"/>
	<path class="st68" d="M137.31,198.96c-9.61,0-17.4-0.6-17.4-1.34c0-0.74,7.79-1.34,17.4-1.34c9.6,0,17.39,0.6,17.39,1.34
		C154.7,198.35,146.91,198.96,137.31,198.96L137.31,198.96z"/>
	<path class="st69" d="M137.32,198.9c-9.35,0-16.93-0.58-16.93-1.29c0-0.72,7.58-1.3,16.93-1.3c9.34,0,16.93,0.58,16.93,1.3
		C154.24,198.32,146.66,198.9,137.32,198.9L137.32,198.9z"/>
	<path class="st70" d="M137.32,198.84c-9.09,0-16.46-0.56-16.46-1.24c0-0.69,7.37-1.25,16.46-1.25c9.08,0,16.46,0.56,16.46,1.25
		C153.78,198.29,146.41,198.84,137.32,198.84L137.32,198.84z"/>
	<path class="st71" d="M137.33,198.79c-8.83,0-15.99-0.54-15.99-1.2c0-0.66,7.16-1.2,15.99-1.2c8.83,0,15.99,0.53,15.99,1.2
		C153.31,198.25,146.15,198.79,137.33,198.79L137.33,198.79z"/>
	<path class="st72" d="M137.33,198.73c-8.57,0-15.52-0.51-15.52-1.15c0-0.64,6.95-1.15,15.52-1.15c8.57,0,15.52,0.51,15.52,1.15
		C152.85,198.22,145.9,198.73,137.33,198.73L137.33,198.73z"/>
	<path class="st73" d="M137.34,198.68c-8.31,0-15.05-0.49-15.05-1.1c0-0.61,6.74-1.1,15.05-1.1c8.31,0,15.05,0.49,15.05,1.1
		C152.39,198.19,145.65,198.68,137.34,198.68L137.34,198.68z"/>
	<path class="st74" d="M137.35,198.62c-8.05,0-14.58-0.47-14.58-1.05c0-0.58,6.53-1.05,14.58-1.05c8.05,0,14.58,0.47,14.58,1.05
		C151.92,198.15,145.39,198.62,137.35,198.62L137.35,198.62z"/>
	<path class="st75" d="M137.35,198.57c-7.79,0-14.11-0.45-14.11-1c0-0.56,6.32-1.01,14.11-1.01c7.79,0,14.11,0.45,14.11,1.01
		C151.46,198.12,145.14,198.57,137.35,198.57L137.35,198.57z"/>
	<path class="st76" d="M137.36,198.51c-7.53,0-13.64-0.43-13.64-0.95c0-0.53,6.11-0.96,13.64-0.96c7.53,0,13.64,0.43,13.64,0.96
		C151,198.08,144.89,198.51,137.36,198.51L137.36,198.51z"/>
	<path class="st77" d="M137.37,198.46c-7.27,0-13.17-0.41-13.17-0.9c0-0.5,5.9-0.91,13.17-0.91c7.27,0,13.17,0.4,13.17,0.91
		C150.53,198.05,144.63,198.46,137.37,198.46L137.37,198.46z"/>
</g>
<path class="st78" d="M136.9,70.76c35.15,0,63.64,28.51,63.64,63.64c0,35.15-28.49,63.66-63.64,63.66
	c-35.15,0-63.66-28.51-63.66-63.66C73.24,99.27,101.74,70.76,136.9,70.76L136.9,70.76z"/>
<path class="st1" d="M145.79,172.19h-35.88v-35.3c0-1.64-1.24-2.64-2.51-2.64c-1.51,0-2.51,1-2.51,2.64v38.28
	c0,1.31,1,2.64,2.51,2.64h36.15 M143.54,177.81h22.84c1.24,0,2.51-1.33,2.51-2.64v-39.59c0-1.64-1.27-2.64-2.51-2.64l0,0
	c-1.51,0-2.51,1-2.51,2.64v36.61h-18.09 M107.42,94.3L107.42,94.3c1.27,0,2.31,1.38,2.31,3.04v20.15l25.28-26.79
	c0.49-0.67,1.24-0.98,2-0.98c0.51,0,1.02,0.31,1.51,0.98c14.79,15.51,25.08,26.39,41.65,44.21l0,0c1,1,1,2.98,0,3.95
	c-0.49,0.33-1,0.67-1.76,0.67c-0.75,0-1.51-0.33-1.75-0.67l-39.66-42.54l-39.9,41.88c-1,1.33-2.51,1.33-3.51,0
	c-0.51-0.31-0.76-0.98-0.76-1.64c0-0.64,0.24-1.31,0.76-1.98l11.49-12.17V97.34C105.09,95.68,106.13,94.3,107.42,94.3L107.42,94.3z"
	/>
<path class="st1" d="M147.47,165h-20.43c-1.27,0-2.3-1.03-2.3-2.3v0c0-1.27,1.03-2.3,2.3-2.3h20.43c1.27,0,2.3,1.03,2.3,2.3v0
	C149.77,163.97,148.74,165,147.47,165z"/>
</svg>
